<svg xmlns="http://www.w3.org/2000/svg" viewBox="0 0 200 200" width="200" height="200">
  <defs>
    <radialGradient id="cherryGradient" cx="0.3" cy="0.3" r="0.7">
      <stop offset="0%" style="stop-color:#ff7675;stop-opacity:1" />
      <stop offset="100%" style="stop-color:#d63031;stop-opacity:1" />
    </radialGradient>
    <linearGradient id="leafGradient" x1="0%" y1="0%" x2="100%" y2="100%">
      <stop offset="0%" style="stop-color:#00b894;stop-opacity:1" />
      <stop offset="100%" style="stop-color:#00a085;stop-opacity:1" />
    </linearGradient>
  </defs>
  
  <!-- Cherry 1 -->
  <circle cx="85" cy="120" r="25" fill="url(#cherryGradient)" />
  
  <!-- Cherry 2 -->
  <circle cx="115" cy="135" r="25" fill="url(#cherryGradient)" />
  
  <!-- Cherry stems -->
  <path d="M 85 95 Q 90 80 95 65" stroke="#8b4513" stroke-width="3" fill="none" />
  <path d="M 115 110 Q 110 90 105 70" stroke="#8b4513" stroke-width="3" fill="none" />
  
  <!-- Main stem -->
  <path d="M 95 65 Q 100 55 105 70" stroke="#8b4513" stroke-width="4" fill="none" />
  <rect x="98" y="45" width="4" height="15" fill="#8b4513" rx="2" />
  
  <!-- Leaves -->
  <ellipse cx="75" cy="75" rx="15" ry="10" fill="url(#leafGradient)" transform="rotate(-30 75 75)" />
  <ellipse cx="125" cy="85" rx="15" ry="10" fill="url(#leafGradient)" transform="rotate(20 125 85)" />
  
  <!-- Leaf veins -->
  <path d="M 75 75 L 80 80" stroke="#00a085" stroke-width="1" />
  <path d="M 75 75 L 70 80" stroke="#00a085" stroke-width="1" />
  <path d="M 125 85 L 130 90" stroke="#00a085" stroke-width="1" />
  <path d="M 125 85 L 120 90" stroke="#00a085" stroke-width="1" />
  
  <!-- Cherry highlights -->
  <ellipse cx="75" cy="110" rx="8" ry="10" fill="rgba(255,255,255,0.4)" />
  <ellipse cx="105" cy="125" rx="8" ry="10" fill="rgba(255,255,255,0.4)" />
</svg>
