<svg xmlns="http://www.w3.org/2000/svg" viewBox="0 0 200 200" width="200" height="200">
  <defs>
    <linearGradient id="pepperGradient" x1="0%" y1="0%" x2="100%" y2="100%">
      <stop offset="0%" style="stop-color:#00b894;stop-opacity:1" />
      <stop offset="100%" style="stop-color:#00a085;stop-opacity:1" />
    </linearGradient>
    <linearGradient id="stemGradient" x1="0%" y1="0%" x2="100%" y2="100%">
      <stop offset="0%" style="stop-color:#00b894;stop-opacity:1" />
      <stop offset="100%" style="stop-color:#00a085;stop-opacity:1" />
    </linearGradient>
  </defs>
  
  <!-- Pepper body -->
  <path d="M 100 60 Q 120 80 115 120 Q 110 160 100 180 Q 90 160 85 120 Q 80 80 100 60" fill="url(#pepperGradient)" />
  
  <!-- Pepper ridges -->
  <path d="M 100 60 L 100 180" stroke="#00a085" stroke-width="2" opacity="0.5" />
  <path d="M 90 70 Q 95 100 90 150" stroke="#00a085" stroke-width="1" opacity="0.3" />
  <path d="M 110 70 Q 105 100 110 150" stroke="#00a085" stroke-width="1" opacity="0.3" />
  
  <!-- Pepper stem -->
  <ellipse cx="100" cy="55" rx="8" ry="5" fill="url(#stemGradient)" />
  <rect x="98" y="45" width="4" height="15" fill="#8b4513" rx="2" />
  
  <!-- Pepper highlight -->
  <ellipse cx="90" cy="85" rx="8" ry="15" fill="rgba(255,255,255,0.3)" />
  
  <!-- Small pepper details -->
  <circle cx="95" cy="120" r="1" fill="#00a085" opacity="0.6" />
  <circle cx="105" cy="130" r="1" fill="#00a085" opacity="0.6" />
</svg>
