<svg xmlns="http://www.w3.org/2000/svg" viewBox="0 0 200 200" width="200" height="200">
  <defs>
    <radialGradient id="strawberryGradient" cx="0.3" cy="0.3" r="0.7">
      <stop offset="0%" style="stop-color:#ff7675;stop-opacity:1" />
      <stop offset="100%" style="stop-color:#d63031;stop-opacity:1" />
    </radialGradient>
    <linearGradient id="leafGradient" x1="0%" y1="0%" x2="100%" y2="100%">
      <stop offset="0%" style="stop-color:#00b894;stop-opacity:1" />
      <stop offset="100%" style="stop-color:#00a085;stop-opacity:1" />
    </linearGradient>
  </defs>
  
  <!-- Strawberry body -->
  <path d="M 100 70 Q 120 90 115 140 Q 110 170 100 180 Q 90 170 85 140 Q 80 90 100 70" fill="url(#strawberryGradient)" />
  
  <!-- Strawberry seeds -->
  <g fill="#fdcb6e">
    <ellipse cx="90" cy="90" rx="2" ry="3" />
    <ellipse cx="110" cy="95" rx="2" ry="3" />
    <ellipse cx="85" cy="110" rx="2" ry="3" />
    <ellipse cx="100" cy="105" rx="2" ry="3" />
    <ellipse cx="115" cy="115" rx="2" ry="3" />
    <ellipse cx="95" cy="125" rx="2" ry="3" />
    <ellipse cx="105" cy="130" rx="2" ry="3" />
    <ellipse cx="90" cy="145" rx="2" ry="3" />
    <ellipse cx="110" cy="150" rx="2" ry="3" />
    <ellipse cx="100" cy="160" rx="2" ry="3" />
  </g>
  
  <!-- Strawberry leaves -->
  <g fill="url(#leafGradient)">
    <path d="M 85 65 Q 80 55 75 60 Q 80 70 85 65" />
    <path d="M 95 60 Q 90 50 85 55 Q 90 65 95 60" />
    <path d="M 105 60 Q 110 50 115 55 Q 110 65 105 60" />
    <path d="M 115 65 Q 120 55 125 60 Q 120 70 115 65" />
    <path d="M 100 55 Q 95 45 90 50 Q 95 60 100 55" />
    <path d="M 100 55 Q 105 45 110 50 Q 105 60 100 55" />
  </g>
  
  <!-- Highlight -->
  <ellipse cx="85" cy="95" rx="8" ry="12" fill="rgba(255,255,255,0.4)" />
</svg>
