<svg xmlns="http://www.w3.org/2000/svg" viewBox="0 0 512 512" width="512" height="512">
  <defs>
    <!-- Main gradient for the leaf -->
    <radialGradient id="leafGradient" cx="0.3" cy="0.3" r="0.8">
      <stop offset="0%" style="stop-color:#81C784;stop-opacity:1" />
      <stop offset="50%" style="stop-color:#4CAF50;stop-opacity:1" />
      <stop offset="100%" style="stop-color:#388E3C;stop-opacity:1" />
    </radialGradient>
    
    <!-- Secondary gradient for depth -->
    <linearGradient id="stemGradient" x1="0%" y1="0%" x2="100%" y2="100%">
      <stop offset="0%" style="stop-color:#66BB6A;stop-opacity:1" />
      <stop offset="100%" style="stop-color:#2E7D32;stop-opacity:1" />
    </linearGradient>
    
    <!-- Highlight gradient -->
    <radialGradient id="highlightGradient" cx="0.3" cy="0.3" r="0.6">
      <stop offset="0%" style="stop-color:#ffffff;stop-opacity:0.8" />
      <stop offset="100%" style="stop-color:#ffffff;stop-opacity:0" />
    </radialGradient>
    
    <!-- Shadow filter -->
    <filter id="dropShadow" x="-50%" y="-50%" width="200%" height="200%">
      <feDropShadow dx="4" dy="8" stdDeviation="8" flood-color="#2E7D32" flood-opacity="0.3"/>
    </filter>
    
    <!-- Glow effect -->
    <filter id="glow" x="-50%" y="-50%" width="200%" height="200%">
      <feGaussianBlur stdDeviation="4" result="coloredBlur"/>
      <feMerge> 
        <feMergeNode in="coloredBlur"/>
        <feMergeNode in="SourceGraphic"/>
      </feMerge>
    </filter>
  </defs>
  
  <!-- Background circle -->
  <circle cx="256" cy="256" r="240" fill="url(#leafGradient)" filter="url(#dropShadow)" />
  
  <!-- Main leaf shape -->
  <path d="M 256 80 
           Q 320 120 350 200 
           Q 340 280 320 340 
           Q 300 380 256 420 
           Q 212 380 192 340 
           Q 172 280 162 200 
           Q 192 120 256 80 Z" 
        fill="url(#stemGradient)" 
        filter="url(#glow)" />
  
  <!-- Leaf vein - center -->
  <path d="M 256 80 L 256 420" 
        stroke="#2E7D32" 
        stroke-width="6" 
        opacity="0.6" 
        stroke-linecap="round" />
  
  <!-- Leaf veins - left side -->
  <path d="M 256 140 Q 220 160 200 200" 
        stroke="#2E7D32" 
        stroke-width="3" 
        opacity="0.4" 
        stroke-linecap="round" 
        fill="none" />
  <path d="M 256 200 Q 210 220 190 260" 
        stroke="#2E7D32" 
        stroke-width="3" 
        opacity="0.4" 
        stroke-linecap="round" 
        fill="none" />
  <path d="M 256 260 Q 220 280 200 320" 
        stroke="#2E7D32" 
        stroke-width="3" 
        opacity="0.4" 
        stroke-linecap="round" 
        fill="none" />
  
  <!-- Leaf veins - right side -->
  <path d="M 256 140 Q 292 160 312 200" 
        stroke="#2E7D32" 
        stroke-width="3" 
        opacity="0.4" 
        stroke-linecap="round" 
        fill="none" />
  <path d="M 256 200 Q 302 220 322 260" 
        stroke="#2E7D32" 
        stroke-width="3" 
        opacity="0.4" 
        stroke-linecap="round" 
        fill="none" />
  <path d="M 256 260 Q 292 280 312 320" 
        stroke="#2E7D32" 
        stroke-width="3" 
        opacity="0.4" 
        stroke-linecap="round" 
        fill="none" />
  
  <!-- Highlight on the leaf -->
  <ellipse cx="220" cy="180" rx="40" ry="60" fill="url(#highlightGradient)" transform="rotate(-20 220 180)" />
  
  <!-- Small decorative elements (representing health/analysis) -->
  <circle cx="180" cy="160" r="8" fill="#A5D6A7" opacity="0.8" />
  <circle cx="200" cy="140" r="6" fill="#C8E6C9" opacity="0.9" />
  <circle cx="160" cy="180" r="5" fill="#E8F5E8" opacity="0.7" />
  
  <!-- AI/Tech elements (small dots representing analysis) -->
  <circle cx="320" cy="200" r="4" fill="#81C784" opacity="0.8">
    <animate attributeName="opacity" values="0.8;0.3;0.8" dur="2s" repeatCount="indefinite" />
  </circle>
  <circle cx="340" cy="220" r="3" fill="#A5D6A7" opacity="0.6">
    <animate attributeName="opacity" values="0.6;0.2;0.6" dur="2.5s" repeatCount="indefinite" />
  </circle>
  <circle cx="330" cy="180" r="3" fill="#C8E6C9" opacity="0.7">
    <animate attributeName="opacity" values="0.7;0.3;0.7" dur="1.8s" repeatCount="indefinite" />
  </circle>
</svg>
